{"title":"Hidalgo.DVDRip.x264.AC3-UnKn0wn","uid":8354427,"size":2099103272,"categoryP":"video","categoryS":"movies","magnet":"?xt=urn:btih:a85ae6aece2cb0fcbae2081a49ac41180ccf0111&amp;dn=Hidalgo.DVDRip.x264.AC3-UnKn0wn&amp;tr=udp%3A%2F%2Ftracker.openbittorrent.com%3A80&amp;tr=udp%3A%2F%2Fopen.demonii.com%3A1337&amp;tr=udp%3A%2F%2Ftracker.coppersurfer.tk%3A6969&amp;tr=udp%3A%2F%2Fexodus.desync.com%3A6969","seeders":1,"leechers":0,"uploader":"sceneline","files":7,"time":1365447717,"description":"-\n &lt;a href=&quot;\nhttp://www.Speed.&quot; rel=&quot;nofollow&quot; target=&quot;_NEW&quot;&gt;\nhttp://www.Speed.&lt;/a&gt; Cd       the fast  and The Hottest Private Tracker on the net &lt;a href=&quot;\nhttp://www.Speed.&quot; rel=&quot;nofollow&quot; target=&quot;_NEW&quot;&gt;\nhttp://www.Speed.&lt;/a&gt; Cd\n\nPlease Seed back to make the speed Faster!!\n ............ NFO .............\n-\n &lt;a href=&quot;\nhttp://www.Speed.&quot; rel=&quot;nofollow&quot; target=&quot;_NEW&quot;&gt;\nhttp://www.Speed.&lt;/a&gt; CdFormat : Matroska \nFormat version : Version 2 \nFile size : 1.95 GiB \nDuration : 2h 16mn \nOverall bit rate : 2 052 Kbps \nMovie name : HIDALGO.Title1.DVDRip \nEncoded date : UTC 2013-04-08 14:21:49 \nWriting application : DVDFab \nWriting library : libebml v0.7.8 + libmatroska v0.8.1 \n\nVideo \nID : 1 \nFormat : AVC \nFormat/Info : Advanced Video Codec \nFormat profile : &lt;a class=&quot;__cf_email__&quot; href=&quot;/cdn-cgi/l/email-protection&quot; data-cfemail=&quot;7d301c14133d314e534d&quot;&gt;[email&amp;#160;protected]&lt;/a&gt;&lt;script cf-hash='f9e31' type=&quot;text/javascript&quot;&gt;\n/* &lt;![CDATA[ */!function(){try{var t=&quot;currentScript&quot;in document?document.currentScript:function(){for(var t=document.getElementsByTagName(&quot;script&quot;),e=t.length;e--;)if(t[e].getAttribute(&quot;cf-hash&quot;))return t[e]}();if(t&amp;&amp;t.previousSibling){var e,r,n,i,c=t.previousSibling,a=c.getAttribute(&quot;data-cfemail&quot;);if(a){for(e=&quot;&quot;,r=parseInt(a.substr(0,2),16),n=2;a.length-n;n+=2)i=parseInt(a.substr(n,2),16)^r,e+=String.fromCharCode(i);e=document.createTextNode(e),c.parentNode.replaceChild(e,c)}}}catch(u){}}();/* ]]&gt; */&lt;/script&gt; \nFormat settings, CABAC : Yes \nFormat settings, ReFrames : 2 frames \nCodec ID : V_MPEG4/ISO/AVC \nDuration : 2h 16mn \nBit rate : 1 563 Kbps \nWidth : 720 pixels \nHeight : 304 pixels \nDisplay aspect ratio : 2.35:1 \nFrame rate mode : Constant \nFrame rate : 23.976 fps \nColor space : YUV \nChroma subsampling : 4:2:0 \nBit depth : 8 bits \nScan type : Progressive \nBits/(Pixel*Frame) : 0.298 \nStream size : 1.49 GiB (76%) \nWriting library : x264 core \nDefault : Yes \nForced : No \nColor primaries : BT.601 NTSC \nTransfer characteristics : BT.709 \nMatrix coefficients : BT.601 \n\nAudio \nID : 2 \nFormat : AC-3 \nFormat/Info : Audio Coding 3 \nMode extension : CM (complete main) \nFormat settings, Endianness : Big \nCodec ID : A_AC3 \nDuration : 2h 16mn \nBit rate mode : Constant \nBit rate : 448 Kbps \nChannel(s) : 6 channels \nChannel positions : Front: L C R, Side: L R, LFE \nSampling rate : 48.0 KHz \nBit depth : 16 bits \nCompression mode : Lossy \nStream size : 437 MiB (22%) \nDefault : Yes \nForced : No","torrent":{"xt":"urn:btih:a85ae6aece2cb0fcbae2081a49ac41180ccf0111","amp;dn":"Hidalgo.DVDRip.x264.AC3-UnKn0wn","amp;tr":["udp%3A%2F%2Ftracker.openbittorrent.com%3A80","udp%3A%2F%2Fopen.demonii.com%3A1337","udp%3A%2F%2Ftracker.coppersurfer.tk%3A6969","udp%3A%2F%2Fexodus.desync.com%3A6969"],"infoHash":"a85ae6aece2cb0fcbae2081a49ac41180ccf0111","infoHashBuffer":{"type":"Buffer","data":[168,90,230,174,206,44,176,252,186,226,8,26,73,172,65,24,12,207,1,17]},"announce":[],"urlList":[]}}